<svg xmlns="http://www.w3.org/2000/svg"><symbol id="velociraptor" viewBox="0 0 256 256"><path d="M128 1.7a126 126 0 1 0 126 126 126 126 0 0 0-126-126zm109 114.9h-7.3c-3.1 0-6.1-.2-9.1-.4l-9-1-9-1c-3-.3-6.1-.4-9.1-.4a126.9 126.9 0 0 0-16.2 1 68.1 68.1 0 0 0-15.6 3.6l-30.3 11c-.5.1-.9.7-1.2 1.5a21.3 21.3 0 0 0-.8 2.7l-.6 2.8a8.1 8.1 0 0 1-.6 2 2.7 2.7 0 0 0 1.3 1.3l2.4 1.2 2.9 1.1a11.7 11.7 0 0 1 2.7 1.5 6.3 6.3 0 0 1 2.1 1.8 3.5 3.5 0 0 1 .8 2.4 1.3 1.3 0 0 1-.5 1.2 3.8 3.8 0 0 1-1.2.9l-1.6.7-1.5.8a6.9 6.9 0 0 0-1.3 1.1 2.2 2.2 0 0 0-.4 1.5 3.9 3.9 0 0 0 .7 2.5 7.5 7.5 0 0 0 2 1.5 17.1 17.1 0 0 0 2.3 1.3 7.2 7.2 0 0 1 2.1 1.8 11.7 11.7 0 0 1 2 3.4 17.4 17.4 0 0 1 1.3 3.6c.3 1.3.6 2.5.8 3.8s.1 2.6.2 3.9l1.3 1.3v7.1h.9l1 .2 1 .2c.2.1.5.2.5.3a3.2 3.2 0 0 1 .1.8 4.6 4.6 0 0 1-.1 1 5.6 5.6 0 0 1-.4 1.2 1.8 1.8 0 0 1-.6.9c-.2.3-.5.3-.9.3H143c-.2 0-.5-.5-1-.8l-1.5-.8a10.9 10.9 0 0 0-1.5-.8c-.5-.3-.9-.9-1.2-.9h-6.1a4.9 4.9 0 0 1 .7-2.9 3.9 3.9 0 0 1 1.6-1.5 8.6 8.6 0 0 1 2.1-.7l2.1-.3a4.9 4.9 0 0 0 1.6-.6 1.4 1.4 0 0 0 .7-1.4.4.4 0 0 0-.1-.3v-.3c-.2-.4-.4-1-.8-1.8l-1.3-2.4c-.4-.8-1-1.6-1.5-2.4a10.1 10.1 0 0 0-1.5-1.8l-1.3-.8-1.9-.9-1.7-1.1a2.6 2.6 0 0 1-1-1.1c-.3-.8-.6-1.8-.9-2.9a17.3 17.3 0 0 0-1.1-3.2 7.4 7.4 0 0 0-1.7-2.5 3.8 3.8 0 0 0-2.8-1.1 24.7 24.7 0 0 0-6 .8 28.3 28.3 0 0 0-5.7 2.3 23.8 23.8 0 0 0-4.9 3.4 21.1 21.1 0 0 0-3.9 4.5l-.4.2h-.1c-.1 0-.1-.1-.1-.2s-.2-.1-.2-.3-.1-.4-.2-.6a1.1 1.1 0 0 0-.2-.6c0-.2-.1-.3-.1-.4h-.3a1.3 1.3 0 0 0-1 .4 9.4 9.4 0 0 0-.9 1.2l-.8 1.3a4.5 4.5 0 0 1-.9 1 3.2 3.2 0 0 1-.6-1.6 11.3 11.3 0 0 1 .3-4.5l.9-2.8.9-2.5a15.9 15.9 0 0 0 .4-2.8h-4.8c0-1.6.2-1.8.6-2.3a6.1 6.1 0 0 1 1.6-1.6 6.7 6.7 0 0 1 2.1-.9l2.1-.3 3 .2 2.9.5 2.9.4a13.7 13.7 0 0 0 2.9.2h2.2a2.3 2.3 0 0 0-1.6-1.4 10.9 10.9 0 0 0-2.5-.4l-2.7-.2c-.9-.1-1.6.1-2.2-.2l-3.8-2.2h-.3a11.4 11.4 0 0 0-3.2 0 15.8 15.8 0 0 1-3.1.1 7.3 7.3 0 0 1-3-.7l-2.6-1.3L87 143a4.8 4.8 0 0 0-2.8-.6v6h1.6a2.5 2.5 0 0 0 .9-.4l.9-.5a3.5 3.5 0 0 1 .9-.6l.6-.2v2.8l2-.7c0 .1.2.3.2.5a4.3 4.3 0 0 0 .1.5 5.2 5.2 0 0 1-1.3 3.8 18.2 18.2 0 0 1-3.2 2.9 20.9 20.9 0 0 0-4.6-1.2l-4.7-.7v-7.7l-1.7.5-2.1 1a14 14 0 0 0-1.8 1.2c-.5.4-1 .8-1 1.1v6.9a9.6 9.6 0 0 0 3-.3l1.8-.6 1.2-.7 1.2-.3h.4l.2.7c.2.4.3.8.5 1.3a9.2 9.2 0 0 1 .6 2.2 7.2 7.2 0 0 1-.4 1.9 8.7 8.7 0 0 1-1.1 1.8 4.7 4.7 0 0 1-1.5 1.3 3.2 3.2 0 0 1-1.8.6H74l-2.9-.4-3.6-.7a10.8 10.8 0 0 1-3.3-1.3 2.5 2.5 0 0 1-1.4-2v-11.7l.9-.9 1.9-1.5 2.3-2.2a18.8 18.8 0 0 0 2.4-2.5 31 31 0 0 0 1.8-2.6 6.8 6.8 0 0 0 .7-2.6 3.9 3.9 0 0 0-1.2-2.8 18.9 18.9 0 0 0-2.7-2l-3.3-1.4-2.5-.9-1.3-9a16.8 16.8 0 0 0-.6-2.7 9 9 0 0 0-1.1-2.7 6.8 6.8 0 0 0-1.7-2.1 4.2 4.2 0 0 0-2.7-.9 12.5 12.5 0 0 0-3.6.5 15 15 0 0 0-3.2 1.5l-1.6 1-2.5 1.5-2.9 1.7-3 1.7-2.5 1.7c-.8.4-1.3 1.1-1.6 1.1h-1l-1.7-.2-2.1-.4a4.7 4.7 0 0 1-1.4-.8c-.4-.3-.3-.8-.3-1.3v-1.9c0-.6-.2-.9 0-.9h1.6c0-.1-.1-.2 0-.4a2.8 2.8 0 0 0 .1-.9 2.4 2.4 0 0 0 .2-.8c.1-.3.1-.4 0-.5a2.9 2.9 0 0 0-.7-.8l-.9-.5-.7-.7a1.7 1.7 0 0 1-.3-1.2 2.7 2.7 0 0 1 .3-1.2 2.4 2.4 0 0 1 .6-1.1c.3-.4.3-.7.6-.9l.8-.3v.7c0 .5.5 1 .6 1.5s.7.7 1.2.7a1.7 1.7 0 0 0 1.1-.4 5.4 5.4 0 0 0 .9-1.2 7.7 7.7 0 0 0 .7-1.6c.1-.4.2.3.2-1.4H22.5l-.9-.4-1-.7-.9-.8a1.3 1.3 0 0 1-.4-1 4.8 4.8 0 0 1 1.1-3.2A6.9 6.9 0 0 1 23 99a11.2 11.2 0 0 1 3.1-1l2.8-.8 2.2-1 3.4-1.5 3.3-1.6a8.8 8.8 0 0 1 2.1-1h13.5a8.6 8.6 0 0 1 3.9.9 14.2 14.2 0 0 1 3 2.5 41.9 41.9 0 0 1 2.6 3.3c.7 1.2 1.5 2.3 2.2 3.3a18.9 18.9 0 0 0 2.3 2.5 3.3 3.3 0 0 0 2.4 1c.4 0 .7-.1.8-.4a1.1 1.1 0 0 1 .9-.4l1.5.3 1.5.7 1.5.7a2.7 2.7 0 0 0 1.5.3h4.1l4.1-.5 4-.5 4.1-.2a55.8 55.8 0 0 1 7.2.4 38.9 38.9 0 0 1 7.2 1.6c1.6.5 3.3 1.2 5 1.9l5.1 2.2a50.8 50.8 0 0 0 5.1 1.7 20 20 0 0 0 5.4.7h2.6l12.7-2.7c4.3-.8 8.5-1.6 12.8-2.2s8.5-1.2 12.8-1.6 8.6-.6 13-.6h3.3l5.4.2a32.1 32.1 0 0 1 5 .9l36.1 7.2h11.6c-.8 0-1.8 1-3.1 1.3a13.3 13.3 0 0 1-4 0z"/></symbol><symbol id="brachiosaurus" viewBox="0 0 256 256"><path d="M59 166.4a31.1 31.1 0 0 0-7.6.8v.2c0 .2.3.6.8.9a12 12 0 0 0 2 1.1l2.6.9 2.8.9 2.4.6 1.4.2h2.2l2.5-.4a15.7 15.7 0 0 0 2.3-.9 6.1 6.1 0 0 0 1.7-1.4 26.3 26.3 0 0 0-6.3-2.2 30.5 30.5 0 0 0-6.8-.7z"/><path d="M127.3 1.7a126 126 0 1 0 126 126 126 126 0 0 0-126-126zm82.2 69.5v.3a8.8 8.8 0 0 1-.1 1.4q-.2.9-.3 2.1c-.2.7-.2 1.4-.4 2s-.2 1.1-.2 1.4a5.1 5.1 0 0 0-.9 1.8l-.6 1.9-.6 2c-.2.7-.5 1.3-.7 1.9l-1.7 3.1a21.1 21.1 0 0 0-1.6 3l-19.8 27.5a.8.8 0 0 1-.2.5l-.2.3-.4.3-.4.5-1.6 2.2-2.1 2.9-2.1 3.2-2 3.2c-.6 1.1-1 2-1.4 2.9a8.7 8.7 0 0 0-.5 2.3c0 .3-.2.6-.2.8s.2.4.2.7c-.2 0-.3.1-.3.4s.1.3.3.4v10a3.6 3.6 0 0 1-.2 1c-.2.4-.2.8-.4 1.2s-.5.8-.6 1.2-.4.8-.4 1.1v1.6a.5.5 0 0 1-.1.5 2.5 2.5 0 0 1-.4.7c-.1.3-.5.6-.7.8s-.5.4-.5.5v.3c0 .1.7.3.8.5s.9.3.9.4v.5a2.7 2.7 0 0 0 0 .9v1.4c0 1.1-.5 2.3-.6 3.5s-.6 2.3-.8 3.4-.5 2.3-.7 3.5a20.7 20.7 0 0 0-.3 3.5c0 2.1.1 4.2.3 6.2a38.8 38.8 0 0 0 1.1 6.1 27.8 27.8 0 0 0 2.1 5.7 22.2 22.2 0 0 0 3.4 5.2 4.1 4.1 0 0 1-1.3.8l-1.6.7-1.8.5h-1.8l-1.1-.3-1.1-.2-1-.3h-.8l-.7-.3-.6-.5a.8.8 0 0 1-.3-.7c.1-1.3.1-2.6.1-4l-.3-4.2c-.1-1.4-.3-2.8-.5-4.3s-.4-2.7-.5-4-.1-.3-.2-.6a1.6 1.6 0 0 0-.3-.6c.1-1.1.1-2.3.2-3.6s-.1-2.7-.2-4a25.7 25.7 0 0 0-.6-4 10.2 10.2 0 0 0-1.4-3.4 3.7 3.7 0 0 0-1.4 1.8 27.6 27.6 0 0 0-.8 2.7c-.2 1-.2 1.9-.4 2.9a11.8 11.8 0 0 0-.9 2.3v7.4c0 2.8-.2 5.6-.1 8.2s.2 5.4.5 8.1l.4.4.8.6a2.7 2.7 0 0 1 .8.7.7.7 0 0 1 .4.6c0 .2-.3.5-.8.8l-1.9.8a8.4 8.4 0 0 1-2 .8l-1.2.5h-.2l-4.7-2.6a.4.4 0 0 1-.2-.5v-.6a14 14 0 0 1 0-2.9 29.1 29.1 0 0 0 .1-3 23.4 23.4 0 0 0-.3-3.8l-.6-3.7-.6-3.7a24.2 24.2 0 0 1-.2-3.9 31.1 31.1 0 0 1 .1-3.2l.3-2.8a23.3 23.3 0 0 0 .5-2.8c.2-1 .5-2 .7-3.2v-.7a2.5 2.5 0 0 1-.2-.7l-1.8.2-1.9.5-1.9.6a10.6 10.6 0 0 1-1.9.6l-1.3.2h-2l-1.1-.2h-7a44.3 44.3 0 0 0-5.2-.2h-2.4a3.8 3.8 0 0 0-2.4.9 43.4 43.4 0 0 1 0 5.1c0 1.7-.1 3.4-.1 5.1l-.3 5c0 1.7-.1 3.4-.1 5.2v5c0 .6.6 1.1 1.1 1.7l1.4 1.7 1.2 1.7a4.1 4.1 0 0 1 .5 1.8v.2c0 .1-.1.1-.1.2a10.5 10.5 0 0 1-4 .4c.1.4 0 .7-.2.7h-2.7a7.8 7.8 0 0 1-2.2-.2 3.7 3.7 0 0 1-1.8-.8 2.3 2.3 0 0 1-.8-1.9c0-.4.1-.8.1-1.2a5 5 0 0 1 .4-1.3l.3-1.3a6.6 6.6 0 0 0 .1-1.4 23.4 23.4 0 0 0-.3-3.8c-.1-1.2-.4-2.4-.6-3.6s-.6-2.6-.8-3.8a23.9 23.9 0 0 1-.8-3.9h-.4c-.2 0-.4.8-.5.9l-.4.7-.3.5-1.5 2.3c-.6.7-1 1.5-1.5 2.2a25.6 25.6 0 0 0-1.1 2.4 12.6 12.6 0 0 0-.4 2.7 4.5 4.5 0 0 0 .3 1.6 10.2 10.2 0 0 0 .8 1.5 6.3 6.3 0 0 0 .7 1.2l.3.5a.9.9 0 0 1-.4.8l-1 .4-1.3.3h-4.3l-1.1-.4a3.5 3.5 0 0 1-.7-.9l-.5-1.6c-.2-.5-.3-1.1-.5-1.6a4.5 4.5 0 0 1-.3-1.6 4.2 4.2 0 0 1 .4-1.5 14 14 0 0 1 1-1.6l1-1.6a5 5 0 0 0 .8-1.4c.9-1.9 1.7-3.9 2.5-5.8l2.4-5.9a45708956252725.9 45708956252725.9 0 0 1 1-1.4l.4-.8a1.9 1.9 0 0 0 .2-.8q0-.6-.3-.6h-1.3l-8.9 2.4a3.2 3.2 0 0 1-1.3.5l-1.8.4a5.2 5.2 0 0 0-1.5.6 1 1 0 0 0-.7 1 2 2 0 0 0 .2.9l.7.7.8.5.8.6-.4.5-1.3-.9-1.4-.8-1.5-.6a3.9 3.9 0 0 0-1.5-.2 12.8 12.8 0 0 0-3.8.5l-3.9 1.1-4 1.1a15.1 15.1 0 0 1-4.2.5 18.5 18.5 0 0 1-3.5-.4 39.7 39.7 0 0 1-4.8-1.1 56 56 0 0 1-5.4-1.7 44.9 44.9 0 0 1-4.9-2.2 18.6 18.6 0 0 1-3.7-2.7 4.4 4.4 0 0 1-1.4-2.9 4.7 4.7 0 0 1 1.1-3.3 7.4 7.4 0 0 1 2.7-1.6 20 20 0 0 1 3.5-.2c1.2 0 2.3.4 3.3.4h4a1.9 1.9 0 0 1 1.2-.3 19.5 19.5 0 0 1 2.3.2l2.6.3 1.9.2a6 6 0 0 1 1.9.6l1.8.8 1.8.8a6.9 6.9 0 0 0 2 .3 7.8 7.8 0 0 0 4-1.1 37.7 37.7 0 0 0 4.1-2.5c1.3-1 2.6-2 3.8-3.1l3.3-2.7 1.8-1.2 1.8-1.1 1.7-1.2a8 8 0 0 0 1.5-1.7 33 33 0 0 0 2.6-4.5 39.9 39.9 0 0 1 2.7-4.4l1.3-1.3 1.5-1 1.6-.8 1.6-.9a33.8 33.8 0 0 0 3.6-2.7c1.2-.9 2.3-1.9 3.4-2.9s2.3-1.9 3.4-2.9 2.2-2 3.4-2.9l3.7-2.2 3.9-1.8 2.5-1.3 2.4-1.3 2.6-1.1a11.1 11.1 0 0 1 2.6-.7l22.2-3.3a8.9 8.9 0 0 0 3.5-1.1 14.6 14.6 0 0 0 3.3-2.2 27.9 27.9 0 0 0 3.2-2.8l2.9-3.2 2.6-3.2 2.3-2.8 7.7-8.9.3-.3.5-.5.5-.5.3-.3 2-3.2.3-.2a.5.5 0 0 1 .4-.2l.3-.3.3-.2.4-.4.3-.4 1.3-1.6 1.3-2 1.3-1.9 1-1.8a11.9 11.9 0 0 0 .8-2 12.9 12.9 0 0 0 .7-2.1 18 18 0 0 1 .8-2.1c.2-.8 1-1.5 1-2.2v-5.9a5 5 0 0 0-1.1-3 10.7 10.7 0 0 0-2.6-2.6 11.9 11.9 0 0 0-3.3-1.8 8.4 8.4 0 0 0-3.2-.7 22.5 22.5 0 0 0-5.8.7 12.4 12.4 0 0 0-5.1 2.6l-1.4 1.4-1.6 1.9c-.6.6-1.1 1.3-1.7 2l-1.9 1.8a10.2 10.2 0 0 1-1.8 1.3 3.7 3.7 0 0 1-1.7.5 1.7 1.7 0 0 1-1.2-.5 1.6 1.6 0 0 1-.5-1.1v-.4a4.3 4.3 0 0 0 .1-.5c.1-.2.1-.5.2-.8s.1-.5.1-.7a1.3 1.3 0 0 0 .1-.5 8.8 8.8 0 0 0-.2-1.7l-.6-1.3a6.7 6.7 0 0 1-.6-1.2 2.7 2.7 0 0 1-.3-1.2 1.2 1.2 0 0 0 .9-.3l.4-.6a4.3 4.3 0 0 1 .4-.7 1.6 1.6 0 0 1 .8-.6c0-.1.2-.1.6-.1h2.2a1.1 1.1 0 0 0 1-.4l.7-.6a.1.1 0 0 1 .2 0h.2c0 .1.1.2.2.4s.1.4.2.4.2-.3.4-.4l.6-.3 1.1-.7 1.4-.8 1.3-.8 1.1-.6.5-.4a12 12 0 0 1 2.1-1.2l1.8-.7 1.9-.2h6.4l1.4.5 1.6.3 1.5.3 1.5.5a16.2 16.2 0 0 1 7.7 7.2 19.6 19.6 0 0 1 1.7 5 24.7 24.7 0 0 1 .5 5.4v2.3z"/></symbol><symbol id="micropachycephalosaurus" viewBox="0 0 256 256"><path d="M132.2 150.6c-.3 0-.4.2-.4.6h-.1a.5.5 0 0 0-.5.5c0 .4.2.6.5.6s.4-.2.4-.6h.1a.5.5 0 0 0 .5-.5c0-.4-.2-.6-.5-.6zm1.4-.8a2 2 0 0 0-.8.8h.3l1.1-.3a3 3 0 0 0 .8-.8h-.3a2.3 2.3 0 0 0-1.1.3zm3-2.5c-.2 0-.4.1-.4.5h-.1c-.3 0-.4.2-.4.6h-.1c-.4 0-.5.2-.5.6s.1.5.5.5a.5.5 0 0 0 .4-.5h.1c.3 0 .5-.2.5-.6.4 0 .5-.2.5-.6s-.1-.5-.5-.5zm23.1-5.9l-1.3 1.4a1.4 1.4 0 0 0 .8 1 2 2 0 0 0 1.1.2 2.3 2.3 0 0 0 1.4-.4 6.9 6.9 0 0 0 1.1-1.3 9.1 9.1 0 0 0 .7-1.4c.2-.5.4-1.2.5-1.2h-3.4c-.2 0-.5 1.1-.9 1.7z"/><path d="M127.7 1.7a126 126 0 1 0 126 126 126 126 0 0 0-126-126zm94.4 74.7l-1.5.4h-3.7a27.5 27.5 0 0 0-5.1 1.2 12.1 12.1 0 0 0-3.6 1.6 10.3 10.3 0 0 0-2.5 2.1 11.7 11.7 0 0 0-1.7 2.9 24.5 24.5 0 0 0-1.5 3.9c-.5 1.5-1.1 3.1-1.7 5l-1.2 3.4c-.3 1.1-.8 2.1-1.2 3.2s-.9 2-1.4 3.1-1.1 2.1-1.8 3.2a39.4 39.4 0 0 1-2.6 4c-1 1.2-1.9 2.5-2.9 3.6l-3.1 3.6a39.3 39.3 0 0 0-3.1 3.8 9.4 9.4 0 0 0-1.4 2.6l-.9 2.6a9.6 9.6 0 0 1-1.4 2.1 4.8 4.8 0 0 1-2.4 1.6l-1.4.6-2 .6-2 .7-1.3.4a2.8 2.8 0 0 1 .1 2 1.8 1.8 0 0 1-.8.9l-1.2.6a2 2 0 0 0-.9.9l-2.2 6.7a2.7 2.7 0 0 1-1.1 1.5 5.3 5.3 0 0 1-1.7.8 13.6 13.6 0 0 1-2 .2 11.5 11.5 0 0 1-1.9-.1h-.8c-.5 0-.9.2-1.1 0s-.4-.3-.4-.8a.6.6 0 0 1 .1-.4l.2-.2.2-.3a.6.6 0 0 0 .1-.4v-.2a26 26 0 0 0-3.4 1.6l-3.3 2.1-3.3 2.1a23.3 23.3 0 0 1-3.4 2 2.9 2.9 0 0 1-.8.4l-1.2.6a3.9 3.9 0 0 0-1 .8 1.8 1.8 0 0 0-.4 1v.6l1.7 1.6 2 1.7a15.6 15.6 0 0 0 2 1.6 11.3 11.3 0 0 0 2.1 1.2 7.5 7.5 0 0 0 1.8.7l1.9.5 1.9.7a5.1 5.1 0 0 1 1.6.9 4.4 4.4 0 0 1 1.3 1.4l1.2 1.5 1.1 1.4a8.6 8.6 0 0 0 1.4 1.3l1.7.6a6.6 6.6 0 0 1 2 .6 5.2 5.2 0 0 1 1.8 1 2.1 2.1 0 0 1 .8 1.7v.5l-5.6 1.1-1.1.4a2 2 0 0 1-1.1.3h-.6l-1.1-.6-1.7-1a12.8 12.8 0 0 1-1.7-1l-1.1-.7-.2-.3-.3-.4-.3-.6-.3-.4-2.2-4.5-1.1-.4-1.8-.8-2.1-.9-2.2-1-1.7-.8-1.1-.6-2.8-1.5a17.8 17.8 0 0 1-2.6-2.2 12.8 12.8 0 0 1-2-2.6 8.7 8.7 0 0 1-1-3.1l-.6.2-.6.3-.8.7-1.7 1.1-2.1 1.4-2.1 1.4-1.8 1.1-.9.5-5.9 3.5a17.7 17.7 0 0 0-4.5 3.4 15.4 15.4 0 0 0-3.6 4.4c-.9 1.7-.7 3.9-2.4 6.5v1.6a9.2 9.2 0 0 0 1.2 4.4 6.5 6.5 0 0 0 2.1 2.5 6 6 0 0 0 2.6 1.4l2.5 1a4.7 4.7 0 0 1 2 1 5.3 5.3 0 0 1 .8 2h-13.2c-.1 0-.1-.3-.2-.4s-.3-.1-.4-.2l-.5-.2c-.2-.1-.4-.1-.6-.3a2.9 2.9 0 0 1-1.2-1.5 7.9 7.9 0 0 1-.5-2.2 19.5 19.5 0 0 1 .2-2.3c0-.7.3-1.4.3-2v-1.4a6.9 6.9 0 0 1 .2-1.8 18.1 18.1 0 0 0 .6-2.7c.3-1 .5-2 .8-3.1s.5-2.1.8-3.1.5-1.9.6-2.7.4-1.3.5-1.7.4-1.4.6-2a11.8 11.8 0 0 1 1-1.9 16 16 0 0 0 4.5-2.5 33.4 33.4 0 0 0 3.2-3.3l2.9-3.4a12.4 12.4 0 0 1 3.4-3 3.7 3.7 0 0 1 1.4-.7l2-.8 2.3-1 2.2-1.1a10 10 0 0 0 1.5-1.3 2.5 2.5 0 0 0 .6-1.6v-1.3a1.7 1.7 0 0 0-.6-1.2l-.8-.3-1.1-.5-1.2-.5-.8-.4a9.4 9.4 0 0 1-2-1.2l-2.6-1.9-2.5-1.5a3.4 3.4 0 0 0-1.8-.6h-7.8c-5.9 0-11.7-.1-17.5.1s-11.6.2-17.5.2c-4.4 0-8.6-.1-12.8-.3a102.9 102.9 0 0 1-12.3-1.4 71.2 71.2 0 0 1-11.9-2.9 65.3 65.3 0 0 1-11.7-5l-1.4-.7-1.5-1a4 4 0 0 1-1.3-1.3 2.4 2.4 0 0 1-.6-1.5 5.9 5.9 0 0 1 2.1.4l2.4.9 2.2.9 1.5.7 4.6 1.6a41 41 0 0 0 5 1.4 30.6 30.6 0 0 0 5.1 1 27.4 27.4 0 0 0 4.8.4h26.3l2.6-.4 3.3-.5 3.6-.6 3.4-.6 2.6-.6 6.9-1.3 7.3-1.6 7.2-2.1a42.4 42.4 0 0 0 6.5-2.9l3.8-1.7a30.8 30.8 0 0 1 3.8-1.6 29.7 29.7 0 0 1 3.9-1.3l4.2-1h4.5l1-.2 1.9-.3 3.3-.8 4-.9 4.1-.9c1.2-.2 2.3-.9 3.2-1.1s1.6-.7 1.9-.7h6.5c2.7 0 5.3.5 7.9.7s5.1.5 7.8.5a10 10 0 0 0 5-1.2 19.9 19.9 0 0 0 4.4-3.5 38.1 38.1 0 0 0 3.9-4.9c1.2-1.9 2.2-3.7 3.2-5.6a53.8 53.8 0 0 0 2.5-5.6c.8-1.8 1.3-3.3 1.8-4.7s.8-2.4 1.1-3.5.7-2.1 1-3.1a12.3 12.3 0 0 1 1.2-2.6 8.1 8.1 0 0 1 1.8-1.9 6.8 6.8 0 0 1 2.6-1.6 12 12 0 0 1 3.7-.8h3.1c.7 1.6 1.7.9 2.9 1.3a36.8 36.8 0 0 1 3.5 1.5 14 14 0 0 1 3 1.8 2.9 2.9 0 0 1 1.2 2.2 2 2 0 0 1-.4 1.4 3.6 3.6 0 0 1-1.2.5z"/></symbol></svg>